Patient4_TMGait_0pt6_01_right_47_EMG.mot
version=1
nRows=23
nColumns=33
inDegrees=no
endheader
time	1LAddLong	2LGlutMax	3LGlutMed	4LIliopsoas	5LSemiMemb	6LBicFemLong	7LRecFem	8LVastMed	9LVastLat	10LGasMed	11LTibAnt	12lTibPost	13LPeroneusLong	14LSol	15LExtDigLong	16LFlexDigLong	17RAddLong	18RGlutMax	19RGlutMed	20RIliopsoas	21RSemiMemb	22RBicFemLong	23RRecFem	24RVastMed	25RVastLat	26RGasMed	27RTibAnt	28RTibPost	29RPeroneusLong	30RSol	31RExtDigLong	32RFlexDigLong
57.898	-0.000153	-0.055237	-0.088501	0.002747	0.009003	0.041351	0.17899	0.006104	-0.028381	0.16571	-0.001984	0.014801	0.19501	0.006256	0.010986	-0.005951	-0.007935	-0.09552	-0.21652	0.034332	-0.08194	-0.045319	-0.047302	-0.054169	0.024719	-0.009918	-0.069275	-0.000305	0.18906	-0.019989	-0.002441	-0.009155
57.899	0.00351	-0.080719	-0.0914	0.028381	-0.001373	0.010071	0.16266	0.006409	-0.012665	0.14923	0.016174	-0.012817	0.33814	0.15381	-0.010834	-0.013885	0.003967	-0.11948	-0.34958	0.017395	-0.073853	-0.062714	-0.09079	-0.056915	0.017853	-0.004272	0.020447	-0.002747	-0.073853	0.006866	-0.003967	-0.007629
57.9	0.011444	-0.06424	-0.009766	0.005035	-0.005798	0.008545	0.16556	0.000458	-0.063171	0.097961	-0.005493	-0.012665	0.33875	0.046692	-0.015869	-0.018616	0.000916	-0.093536	-0.34134	-0.014954	-0.004272	-0.096436	-0.066376	-0.023956	0.01297	-0.000763	0.13855	-0.003662	-0.16449	0.038147	-0.001068	-0.012817
57.901	0.013275	-0.075684	-0.02121	0.010986	0.009918	0.012512	0.17456	0.007782	-0.074158	0.046082	-0.022583	-0.010834	-0.11231	-0.077362	-0.007019	-0.028381	0.015106	-0.10086	-0.26779	-0.027466	-0.041199	-0.17059	-0.069733	-0.067291	0.006104	-0.001831	0.10803	0.000153	-0.088043	-0.070343	-0.000763	-0.012054
57.902	0.001831	-0.010529	0.009155	0.002289	0.049133	0.007782	0.1741	0.004425	-0.039063	0.020142	-0.00061	-0.029144	-0.4512	-0.079193	-0.035095	0.017853	0.014038	-0.078888	-0.40909	-0.042419	-0.15228	-0.17364	-0.00946	-0.045929	0.008392	-0.010681	0.075378	-0.001984	-0.014038	-0.064697	-0.002289	-0.008698
57.903	0.007935	-0.007477	0.019684	-0.020752	0.028839	0.004272	0.15243	0.007324	-0.005798	0.022736	0.006256	0.015564	-0.17212	0.049896	-0.047607	0.018616	0.036774	-0.090637	-0.37857	-0.018158	-0.24933	-0.16174	-0.036469	-0.074158	0.007324	-0.014954	-0.039673	-0.000305	-0.089874	-0.029144	0.005493	0.002289
57.904	0.007935	0.019379	-0.073242	0.002441	0.032043	0.006256	0.14114	0.010223	-0.030975	0.019989	-0.005341	0.019989	-0.44693	0.053711	0.00824	0.000153	0.046997	-0.077515	-0.24872	0.010071	-0.28214	-0.17242	-0.043793	-0.094147	0.003815	-0.011139	-0.085754	-0.004425	0.23758	0.021667	-0.002289	0.004883
57.905	0.008392	0.089722	-0.1413	0.024109	0.037842	-0.002747	0.1886	0.00412	-0.025177	0.021057	0.010529	-0.006409	-0.29526	-0.010529	0.066071	-0.00473	0.075531	-0.050964	-0.12375	0.056305	-0.14572	-0.1619	-0.031128	-0.10574	0.010986	-0.009613	-0.059204	-0.000458	0.23224	0.020599	-0.002594	-0.00061
57.906	0.02655	0.11017	-0.10651	0.007629	0.024109	-0.022583	0.16113	0.002747	-0.020752	0.020599	-0.001678	-0.008545	0.080872	-0.14343	0.061493	-0.006104	0.03891	-0.061493	-0.34286	0.092163	0.29938	-0.075836	-0.039673	-0.072479	0.017548	-0.008087	0.012512	-0.000763	0.29999	-0.009918	0.000458	0.002899
57.907	-0.019989	0.086823	-0.063782	-0.010681	0.028381	-0.027161	0.14801	0.005493	-0.021667	0.031433	0.00946	-0.005798	0.055389	-0.023804	0.078888	-0.012207	-0.014801	-0.017395	-0.56076	0.081787	0.072937	-0.003662	-0.025787	-0.089569	0.022888	-0.00946	0.11612	-0.005798	0.27466	-0.039215	0.007172	0.000153
57.908	-0.004425	0.10239	-0.01236	-0.006256	0.017853	-0.02121	0.15961	0.001984	0.015259	-0.014191	0.001221	-0.010071	0.33936	0.15915	0.065765	0.004425	-0.053406	-0.045471	-0.77011	0.046082	0.12344	0.054321	-0.033264	-0.068054	0.023193	-0.007324	0.18387	-0.006561	0.15839	-0.045929	-0.003052	0.002594
57.909	-0.019379	0.10483	0.039368	-0.003662	0.025024	-0.005341	0.18173	0.003204	-0.004425	0.000305	-0.015564	-0.008087	-0.060425	0.28839	0.048981	0.007782	-0.04776	0.005646	-0.68817	0.041351	0.12436	0.085602	-0.014343	-0.02655	0.021973	-0.004272	0.20126	-0.004425	0.058746	-0.028992	-0.005341	0.000916
57.91	0.003357	0.11047	0.00824	-0.001221	0.011749	-0.006256	0.22064	-0.000458	-0.014343	0.054474	-0.009918	-0.008392	0.11581	0.14908	-0.029755	-0.006256	-0.014191	-0.021057	-0.39108	-0.000458	0.030518	0.10574	0.006409	-0.029755	0.007782	-0.005646	0.042419	-0.006409	0.16724	-0.020142	-0.000305	-0.006714
57.911	0.004883	0.10513	0.003204	0.003204	0.024109	-0.018768	0.22598	0.002594	-0.033875	0.10208	0.006409	-0.011444	-0.058136	0.17563	-0.003967	-0.00946	-0.014343	-0.0383	0.27634	0.051575	-0.039825	0.03006	-0.039673	0.053253	0.017548	-0.002136	-0.17227	-0.006866	0.27985	-0.027924	-0.007019	-0.00351
57.912	0.001373	0.066986	-0.041962	0.002747	0.014038	0.001373	0.25803	0.00351	-0.078125	0.099182	0.052032	-0.016785	0.032806	0.16617	-0.036926	-0.014954	-0.006409	-0.12344	0.71198	-0.040894	-0.10162	-0.065613	-0.041046	0.029144	0.025177	-0.009003	-0.1416	0.001984	0.28641	-0.027161	-0.002747	-0.005035
57.913	0.005341	0.084534	-0.037537	-0.00061	0.020447	-0.003052	0.26764	0.01236	-0.097809	0.11932	0.077209	-0.019379	-0.14145	0.12207	-0.047302	-0.012512	0.012665	-0.13229	0.82932	-0.14847	-0.12756	-0.13016	-0.018311	-0.010071	0.014343	-0.004883	-0.13489	-0.005798	0.15625	-0.042267	-0.002441	-0.009155
57.914	0.005951	0.07843	-0.052032	-0.003357	0.017242	0.001831	0.23117	0.010986	-0.079498	0.12772	0.036926	-0.003052	-0.13657	0.10544	-0.097351	-0.001221	0.011139	-0.1709	0.36514	-0.17929	-0.1506	-0.16296	-0.036163	-0.076904	0.011444	0.000305	-0.35278	0.002289	0.051422	-0.043182	-0.002441	-0.011597
57.915	0.002899	0.067139	-0.078125	0.001068	0.025177	-0.012665	0.21439	0.012665	-0.086823	0.10147	-0.047302	-0.012054	0.080566	0.07431	-0.14297	-0.002899	0.009766	-0.15289	0.014191	-0.037842	-0.04303	-0.20386	-0.064697	-0.071716	0.016174	-0.002136	-0.39734	-0.005341	-0.11948	-0.039063	-0.002136	-0.007629
57.916	0.005035	0.083466	-0.039673	0.018921	0.023193	0.015564	0.15137	0.01297	-0.056458	-0.10025	-0.001984	-0.006866	0.066833	0.074463	-0.045319	-0.007324	0.008087	-0.15747	-0.080109	0.11185	-0.085297	-0.14084	-0.081787	-0.021057	0.009155	-0.007172	-0.31998	-0.006714	-0.12848	-0.019989	-0.003357	-0.012817
57.917	0.008545	0.066071	0.011444	0.01709	0.02533	0.002441	0.11871	0.010071	0.12054	-0.15503	-0.0177	-0.010986	0.005035	0.069122	0.055389	-0.00061	-0.029602	-0.13062	-0.20721	0.11459	0.057831	-0.10025	-0.063934	-0.017395	0.035553	-0.008087	-0.09201	-0.002899	-0.089569	-0.016937	0.001678	-0.00824
57.918	0.006714	0.025024	-0.015869	0.017395	0.02121	-0.00473	0.17899	-0.007019	0.14969	-0.043182	-0.025024	-0.009308	0.043182	0.001984	0.023804	0.00412	-0.02243	-0.11017	-0.32028	0.09079	0.17273	-0.000763	-0.10483	-0.001526	0.011597	-0.010376	0.089111	0.000305	-0.057678	0.000153	-0.001221	-0.007782
57.919	0.007935	0.005035	-0.037537	0.011292	0.017395	0.023346	0.1831	-0.00473	0.10239	0.010223	-0.023193	0.001678	0.079803	-0.012207	-0.048523	-0.003357	-0.003967	-0.10162	-0.42557	0.053406	0.11337	0.020294	-0.09491	-0.010834	0.016937	-0.004272	0.12451	-0.008698	-0.092316	-0.026855	-0.001221	-0.005035
57.92	0.011139	0.005951	-0.086975	0.003052	0.019989	0.022125	0.20096	0.002289	-0.013428	0.007935	0.007019	-0.004883	0.10269	0.069885	0.006256	-0.00824	0.00885	-0.098877	-0.49515	0.002899	0.076904	0.067749	-0.10208	-0.012817	0.019989	-0.007782	0.019073	-0.005035	-0.075226	-0.024414	0	-0.007782
